<?xml version="1.0" encoding="utf-8" standalone="no"?>
<!DOCTYPE svg PUBLIC "-//W3C//DTD SVG 1.1//EN"
  "http://www.w3.org/Graphics/SVG/1.1/DTD/svg11.dtd">
<svg xmlns:xlink="http://www.w3.org/1999/xlink" width="460.8pt" height="368.6875pt" viewBox="0 0 460.8 368.6875" xmlns="http://www.w3.org/2000/svg" version="1.1">
 <metadata>
  <rdf:RDF xmlns:dc="http://purl.org/dc/elements/1.1/" xmlns:cc="http://creativecommons.org/ns#" xmlns:rdf="http://www.w3.org/1999/02/22-rdf-syntax-ns#">
   <cc:Work>
    <dc:type rdf:resource="http://purl.org/dc/dcmitype/StillImage"/>
    <dc:date>2023-07-30T21:37:45.593941</dc:date>
    <dc:format>image/svg+xml</dc:format>
    <dc:creator>
     <cc:Agent>
      <dc:title>Matplotlib v3.7.2, https://matplotlib.org/</dc:title>
     </cc:Agent>
    </dc:creator>
   </cc:Work>
  </rdf:RDF>
 </metadata>
 <defs>
  <style type="text/css">*{stroke-linejoin: round; stroke-linecap: butt}</style>
 </defs>
 <g id="figure_1">
  <g id="patch_1">
   <path d="M 0 368.6875 
L 460.8 368.6875 
L 460.8 -0 
L 0 -0 
L 0 368.6875 
z
" style="fill: none"/>
  </g>
  <g id="axes_1">
   <g id="patch_2">
    <path d="M 7.2 361.4875 
L 453.6 361.4875 
L 453.6 28.8475 
L 7.2 28.8475 
L 7.2 361.4875 
z
" style="fill: none"/>
   </g>
   <g id="matplotlib.axis_1">
    <g id="xtick_1"/>
    <g id="xtick_2"/>
    <g id="xtick_3"/>
    <g id="xtick_4"/>
    <g id="xtick_5"/>
    <g id="xtick_6"/>
    <g id="xtick_7"/>
    <g id="xtick_8"/>
    <g id="xtick_9"/>
   </g>
   <g id="matplotlib.axis_2">
    <g id="ytick_1"/>
    <g id="ytick_2"/>
    <g id="ytick_3"/>
    <g id="ytick_4"/>
    <g id="ytick_5"/>
   </g>
   <g id="PathCollection_1">
    <path d="M 45.379403 93.389021 
C 51.309525 93.389021 56.997563 91.032959 61.190792 86.839729 
C 65.384021 82.6465 67.740083 76.958463 67.740083 71.028341 
C 67.740083 65.098219 65.384021 59.410182 61.190792 55.216953 
C 56.997563 51.023724 51.309525 48.667661 45.379403 48.667661 
C 39.449282 48.667661 33.761244 51.023724 29.568015 55.216953 
C 25.374786 59.410182 23.018724 65.098219 23.018724 71.028341 
C 23.018724 76.958463 25.374786 82.6465 29.568015 86.839729 
C 33.761244 91.032959 39.449282 93.389021 45.379403 93.389021 
z
" clip-path="url(#p380158eaf5)" style="fill: #b2df8a; fill-opacity: 0.6; stroke: #000000; stroke-opacity: 0.6; stroke-width: 0.874194"/>
    <path d="M 298.108786 114.794247 
C 303.743828 114.794247 309.148831 112.555421 313.133408 108.570845 
C 317.117984 104.586269 319.356809 99.181265 319.356809 93.546223 
C 319.356809 87.911182 317.117984 82.506178 313.133408 78.521602 
C 309.148831 74.537026 303.743828 72.2982 298.108786 72.2982 
C 292.473745 72.2982 287.068741 74.537026 283.084165 78.521602 
C 279.099589 82.506178 276.860763 87.911182 276.860763 93.546223 
C 276.860763 99.181265 279.099589 104.586269 283.084165 108.570845 
C 287.068741 112.555421 292.473745 114.794247 298.108786 114.794247 
z
" clip-path="url(#p380158eaf5)" style="fill: #1f78b4; fill-opacity: 0.6; stroke: #000000; stroke-opacity: 0.6; stroke-width: 0.874194"/>
    <path d="M 59.820066 108.097949 
C 63.989557 108.097949 67.988837 106.441392 70.937112 103.493117 
C 73.885387 100.544842 75.541943 96.545562 75.541943 92.376071 
C 75.541943 88.206581 73.885387 84.207301 70.937112 81.259026 
C 67.988837 78.310751 63.989557 76.654194 59.820066 76.654194 
C 55.650576 76.654194 51.651296 78.310751 48.70302 81.259026 
C 45.754745 84.207301 44.098189 88.206581 44.098189 92.376071 
C 44.098189 96.545562 45.754745 100.544842 48.70302 103.493117 
C 51.651296 106.441392 55.650576 108.097949 59.820066 108.097949 
z
" clip-path="url(#p380158eaf5)" style="fill: #b2df8a; fill-opacity: 0.6; stroke: #000000; stroke-opacity: 0.6; stroke-width: 0.874194"/>
    <path d="M 213.00389 337.665733 
C 217.064258 337.665733 220.95887 336.052532 223.829984 333.181418 
C 226.701098 330.310304 228.314299 326.415692 228.314299 322.355325 
C 228.314299 318.294957 226.701098 314.400345 223.829984 311.529231 
C 220.95887 308.658117 217.064258 307.044916 213.00389 307.044916 
C 208.943523 307.044916 205.04891 308.658117 202.177797 311.529231 
C 199.306683 314.400345 197.693482 318.294957 197.693482 322.355325 
C 197.693482 326.415692 199.306683 330.310304 202.177797 333.181418 
C 205.04891 336.052532 208.943523 337.665733 213.00389 337.665733 
z
" clip-path="url(#p380158eaf5)" style="fill: #a6cee3; fill-opacity: 0.6; stroke: #000000; stroke-opacity: 0.6; stroke-width: 0.874194"/>
    <path d="M 412.096051 133.324476 
C 416.156419 133.324476 420.051031 131.711275 422.922145 128.840161 
C 425.793258 125.969048 427.406459 122.074436 427.406459 118.014068 
C 427.406459 113.9537 425.793258 110.059088 422.922145 107.187974 
C 420.051031 104.316861 416.156419 102.70366 412.096051 102.70366 
C 408.035683 102.70366 404.141071 104.316861 401.269957 107.187974 
C 398.398844 110.059088 396.785643 113.9537 396.785643 118.014068 
C 396.785643 122.074436 398.398844 125.969048 401.269957 128.840161 
C 404.141071 131.711275 408.035683 133.324476 412.096051 133.324476 
z
" clip-path="url(#p380158eaf5)" style="fill: #1f78b4; fill-opacity: 0.6; stroke: #000000; stroke-opacity: 0.6; stroke-width: 0.874194"/>
    <path d="M 27.490909 110.292156 
C 31.551277 110.292156 35.445889 108.678955 38.317003 105.807842 
C 41.188116 102.936728 42.801317 99.042116 42.801317 94.981748 
C 42.801317 90.92138 41.188116 87.026768 38.317003 84.155654 
C 35.445889 81.284541 31.551277 79.67134 27.490909 79.67134 
C 23.430541 79.67134 19.535929 81.284541 16.664816 84.155654 
C 13.793702 87.026768 12.180501 90.92138 12.180501 94.981748 
C 12.180501 99.042116 13.793702 102.936728 16.664816 105.807842 
C 19.535929 108.678955 23.430541 110.292156 27.490909 110.292156 
z
" clip-path="url(#p380158eaf5)" style="fill: #b2df8a; fill-opacity: 0.6; stroke: #000000; stroke-opacity: 0.6; stroke-width: 0.874194"/>
    <path d="M 184.919086 273.949496 
C 188.979454 273.949496 192.874066 272.336295 195.74518 269.465181 
C 198.616293 266.594068 200.229494 262.699455 200.229494 258.639088 
C 200.229494 254.57872 198.616293 250.684108 195.74518 247.812994 
C 192.874066 244.941881 188.979454 243.328679 184.919086 243.328679 
C 180.858718 243.328679 176.964106 244.941881 174.092993 247.812994 
C 171.221879 250.684108 169.608678 254.57872 169.608678 258.639088 
C 169.608678 262.699455 171.221879 266.594068 174.092993 269.465181 
C 176.964106 272.336295 180.858718 273.949496 184.919086 273.949496 
z
" clip-path="url(#p380158eaf5)" style="fill: #a6cee3; fill-opacity: 0.6; stroke: #000000; stroke-opacity: 0.6; stroke-width: 0.874194"/>
    <path d="M 43.108668 111.711921 
C 46.699534 111.711921 50.143812 110.285255 52.682939 107.746129 
C 55.222065 105.207002 56.648732 101.762724 56.648732 98.171857 
C 56.648732 94.58099 55.222065 91.136713 52.682939 88.597586 
C 50.143812 86.05846 46.699534 84.631793 43.108668 84.631793 
C 39.517801 84.631793 36.073523 86.05846 33.534396 88.597586 
C 30.99527 91.136713 29.568603 94.58099 29.568603 98.171857 
C 29.568603 101.762724 30.99527 105.207002 33.534396 107.746129 
C 36.073523 110.285255 39.517801 111.711921 43.108668 111.711921 
z
" clip-path="url(#p380158eaf5)" style="fill: #b2df8a; fill-opacity: 0.6; stroke: #000000; stroke-opacity: 0.6; stroke-width: 0.874194"/>
    <path d="M 107.623686 134.420439 
C 110.395968 134.420439 113.055078 133.319 115.015377 131.358701 
C 116.975676 129.398401 118.077116 126.739292 118.077116 123.96701 
C 118.077116 121.194728 116.975676 118.535618 115.015377 116.575319 
C 113.055078 114.615019 110.395968 113.51358 107.623686 113.51358 
C 104.851404 113.51358 102.192294 114.615019 100.231995 116.575319 
C 98.271696 118.535618 97.170256 121.194728 97.170256 123.96701 
C 97.170256 126.739292 98.271696 129.398401 100.231995 131.358701 
C 102.192294 133.319 104.851404 134.420439 107.623686 134.420439 
z
" clip-path="url(#p380158eaf5)" style="fill: #b2df8a; fill-opacity: 0.6; stroke: #000000; stroke-opacity: 0.6; stroke-width: 0.874194"/>
    <path d="M 417.7617 54.047823 
C 420.435033 54.047823 422.999233 52.985696 424.889565 51.095364 
C 426.779896 49.205033 427.842023 46.640833 427.842023 43.9675 
C 427.842023 41.294167 426.779896 38.729967 424.889565 36.839636 
C 422.999233 34.949304 420.435033 33.887177 417.7617 33.887177 
C 415.088367 33.887177 412.524168 34.949304 410.633836 36.839636 
C 408.743504 38.729967 407.681378 41.294167 407.681378 43.9675 
C 407.681378 46.640833 408.743504 49.205033 410.633836 51.095364 
C 412.524168 52.985696 415.088367 54.047823 417.7617 54.047823 
z
" clip-path="url(#p380158eaf5)" style="fill: #1f78b4; fill-opacity: 0.6; stroke: #000000; stroke-opacity: 0.6; stroke-width: 0.874194"/>
    <path d="M 433.309091 83.887208 
C 435.879668 83.887208 438.345308 82.865906 440.162981 81.048234 
C 441.980654 79.230561 443.001955 76.764921 443.001955 74.194344 
C 443.001955 71.623766 441.980654 69.158127 440.162981 67.340454 
C 438.345308 65.522781 435.879668 64.50148 433.309091 64.50148 
C 430.738513 64.50148 428.272874 65.522781 426.455201 67.340454 
C 424.637528 69.158127 423.616227 71.623766 423.616227 74.194344 
C 423.616227 76.764921 424.637528 79.230561 426.455201 81.048234 
C 428.272874 82.865906 430.738513 83.887208 433.309091 83.887208 
z
" clip-path="url(#p380158eaf5)" style="fill: #1f78b4; fill-opacity: 0.6; stroke: #000000; stroke-opacity: 0.6; stroke-width: 0.874194"/>
    <path d="M 327.506206 160.690517 
C 329.969746 160.690517 332.332717 159.711742 334.074703 157.969756 
C 335.816689 156.22777 336.795464 153.864799 336.795464 151.401259 
C 336.795464 148.937718 335.816689 146.574747 334.074703 144.832761 
C 332.332717 143.090775 329.969746 142.112 327.506206 142.112 
C 325.042665 142.112 322.679694 143.090775 320.937708 144.832761 
C 319.195722 146.574747 318.216947 148.937718 318.216947 151.401259 
C 318.216947 153.864799 319.195722 156.22777 320.937708 157.969756 
C 322.679694 159.711742 325.042665 160.690517 327.506206 160.690517 
z
" clip-path="url(#p380158eaf5)" style="fill: #1f78b4; fill-opacity: 0.6; stroke: #000000; stroke-opacity: 0.6; stroke-width: 0.874194"/>
    <path d="M 334.87007 128.658204 
C 337.296882 128.658204 339.624625 127.694021 341.340641 125.978006 
C 343.056656 124.261991 344.020838 121.934248 344.020838 119.507436 
C 344.020838 117.080623 343.056656 114.752881 341.340641 113.036865 
C 339.624625 111.32085 337.296882 110.356667 334.87007 110.356667 
C 332.443258 110.356667 330.115515 111.32085 328.3995 113.036865 
C 326.683485 114.752881 325.719302 117.080623 325.719302 119.507436 
C 325.719302 121.934248 326.683485 124.261991 328.3995 125.978006 
C 330.115515 127.694021 332.443258 128.658204 334.87007 128.658204 
z
" clip-path="url(#p380158eaf5)" style="fill: #1f78b4; fill-opacity: 0.6; stroke: #000000; stroke-opacity: 0.6; stroke-width: 0.874194"/>
    <path d="M 183.174212 189.292208 
C 185.525848 189.292208 187.781483 188.357893 189.444341 186.695035 
C 191.107198 185.032178 192.041513 182.776542 192.041513 180.424907 
C 192.041513 178.073271 191.107198 175.817635 189.444341 174.154778 
C 187.781483 172.49192 185.525848 171.557605 183.174212 171.557605 
C 180.822576 171.557605 178.566941 172.49192 176.904083 174.154778 
C 175.241225 175.817635 174.30691 178.073271 174.30691 180.424907 
C 174.30691 182.776542 175.241225 185.032178 176.904083 186.695035 
C 178.566941 188.357893 180.822576 189.292208 183.174212 189.292208 
z
" clip-path="url(#p380158eaf5)" style="fill: #a6cee3; fill-opacity: 0.6; stroke: #000000; stroke-opacity: 0.6; stroke-width: 0.874194"/>
    <path d="M 333.222497 80.346294 
C 335.496473 80.346294 337.677618 79.442834 339.285562 77.834891 
C 340.893505 76.226947 341.796965 74.045802 341.796965 71.771826 
C 341.796965 69.49785 340.893505 67.316705 339.285562 65.708761 
C 337.677618 64.100818 335.496473 63.197358 333.222497 63.197358 
C 330.948521 63.197358 328.767376 64.100818 327.159432 65.708761 
C 325.551489 67.316705 324.648029 69.49785 324.648029 71.771826 
C 324.648029 74.045802 325.551489 76.226947 327.159432 77.834891 
C 328.767376 79.442834 330.948521 80.346294 333.222497 80.346294 
z
" clip-path="url(#p380158eaf5)" style="fill: #1f78b4; fill-opacity: 0.6; stroke: #000000; stroke-opacity: 0.6; stroke-width: 0.874194"/>
    <path d="M 135.824 165.917955 
C 138.017567 165.917955 140.121587 165.046441 141.672674 163.495355 
C 143.22376 161.944268 144.095274 159.840248 144.095274 157.646681 
C 144.095274 155.453113 143.22376 153.349093 141.672674 151.798007 
C 140.121587 150.24692 138.017567 149.375406 135.824 149.375406 
C 133.630432 149.375406 131.526412 150.24692 129.975326 151.798007 
C 128.424239 153.349093 127.552725 155.453113 127.552725 157.646681 
C 127.552725 159.840248 128.424239 161.944268 129.975326 163.495355 
C 131.526412 165.046441 133.630432 165.917955 135.824 165.917955 
z
" clip-path="url(#p380158eaf5)" style="fill: #b2df8a; fill-opacity: 0.6; stroke: #000000; stroke-opacity: 0.6; stroke-width: 0.874194"/>
    <path d="M 383.858277 79.237882 
C 385.968375 79.237882 387.992333 78.399531 389.484397 76.907467 
C 390.976462 75.415402 391.814812 73.391445 391.814812 71.281347 
C 391.814812 69.171249 390.976462 67.147291 389.484397 65.655227 
C 387.992333 64.163162 385.968375 63.324812 383.858277 63.324812 
C 381.74818 63.324812 379.724222 64.163162 378.232157 65.655227 
C 376.740093 67.147291 375.901742 69.171249 375.901742 71.281347 
C 375.901742 73.391445 376.740093 75.415402 378.232157 76.907467 
C 379.724222 78.399531 381.74818 79.237882 383.858277 79.237882 
z
" clip-path="url(#p380158eaf5)" style="fill: #1f78b4; fill-opacity: 0.6; stroke: #000000; stroke-opacity: 0.6; stroke-width: 0.874194"/>
    <path d="M 240.698163 158.807889 
C 242.808261 158.807889 244.832219 157.969538 246.324283 156.477473 
C 247.816347 154.985409 248.654698 152.961451 248.654698 150.851353 
C 248.654698 148.741256 247.816347 146.717298 246.324283 145.225233 
C 244.832219 143.733169 242.808261 142.894818 240.698163 142.894818 
C 238.588065 142.894818 236.564108 143.733169 235.072043 145.225233 
C 233.579979 146.717298 232.741628 148.741256 232.741628 150.851353 
C 232.741628 152.961451 233.579979 154.985409 235.072043 156.477473 
C 236.564108 157.969538 238.588065 158.807889 240.698163 158.807889 
z
" clip-path="url(#p380158eaf5)" style="fill: #1f78b4; fill-opacity: 0.6; stroke: #000000; stroke-opacity: 0.6; stroke-width: 0.874194"/>
    <path d="M 130.575246 336.178515 
C 132.685344 336.178515 134.709302 335.340164 136.201366 333.8481 
C 137.693431 332.356035 138.531781 330.332078 138.531781 328.22198 
C 138.531781 326.111882 137.693431 324.087924 136.201366 322.59586 
C 134.709302 321.103795 132.685344 320.265445 130.575246 320.265445 
C 128.465148 320.265445 126.441191 321.103795 124.949126 322.59586 
C 123.457062 324.087924 122.618711 326.111882 122.618711 328.22198 
C 122.618711 330.332078 123.457062 332.356035 124.949126 333.8481 
C 126.441191 335.340164 128.465148 336.178515 130.575246 336.178515 
z
" clip-path="url(#p380158eaf5)" style="fill: #a6cee3; fill-opacity: 0.6; stroke: #000000; stroke-opacity: 0.6; stroke-width: 0.874194"/>
    <path d="M 406.088615 98.254728 
C 408.111803 98.254728 410.052398 97.450907 411.483007 96.020297 
C 412.913616 94.589688 413.717437 92.649093 413.717437 90.625906 
C 413.717437 88.602718 412.913616 86.662123 411.483007 85.231514 
C 410.052398 83.800904 408.111803 82.997084 406.088615 82.997084 
C 404.065428 82.997084 402.124833 83.800904 400.694224 85.231514 
C 399.263614 86.662123 398.459793 88.602718 398.459793 90.625906 
C 398.459793 92.649093 399.263614 94.589688 400.694224 96.020297 
C 402.124833 97.450907 404.065428 98.254728 406.088615 98.254728 
z
" clip-path="url(#p380158eaf5)" style="fill: #1f78b4; fill-opacity: 0.6; stroke: #000000; stroke-opacity: 0.6; stroke-width: 0.874194"/>
    <path d="M 152.658874 353.827068 
C 154.637175 353.827068 156.534716 353.041081 157.933585 351.642211 
C 159.332455 350.243342 160.118442 348.345801 160.118442 346.3675 
C 160.118442 344.389199 159.332455 342.491658 157.933585 341.092789 
C 156.534716 339.693919 154.637175 338.907932 152.658874 338.907932 
C 150.680573 338.907932 148.783032 339.693919 147.384163 341.092789 
C 145.985293 342.491658 145.199306 344.389199 145.199306 346.3675 
C 145.199306 348.345801 145.985293 350.243342 147.384163 351.642211 
C 148.783032 353.041081 150.680573 353.827068 152.658874 353.827068 
z
" clip-path="url(#p380158eaf5)" style="fill: #a6cee3; fill-opacity: 0.6; stroke: #000000; stroke-opacity: 0.6; stroke-width: 0.874194"/>
    <path d="M 364.67623 162.742068 
C 366.608601 162.742068 368.462088 161.974329 369.828482 160.607936 
C 371.194875 159.241542 371.962614 157.388056 371.962614 155.455684 
C 371.962614 153.523312 371.194875 151.669825 369.828482 150.303432 
C 368.462088 148.937039 366.608601 148.169299 364.67623 148.169299 
C 362.743858 148.169299 360.890371 148.937039 359.523978 150.303432 
C 358.157585 151.669825 357.389845 153.523312 357.389845 155.455684 
C 357.389845 157.388056 358.157585 159.241542 359.523978 160.607936 
C 360.890371 161.974329 362.743858 162.742068 364.67623 162.742068 
z
" clip-path="url(#p380158eaf5)" style="fill: #1f78b4; fill-opacity: 0.6; stroke: #000000; stroke-opacity: 0.6; stroke-width: 0.874194"/>
    <path d="M 236.116007 207.779925 
C 237.953079 207.779925 239.715157 207.050048 241.014163 205.751042 
C 242.313169 204.452036 243.043046 202.689958 243.043046 200.852886 
C 243.043046 199.015813 242.313169 197.253735 241.014163 195.954729 
C 239.715157 194.655723 237.953079 193.925846 236.116007 193.925846 
C 234.278935 193.925846 232.516857 194.655723 231.21785 195.954729 
C 229.918844 197.253735 229.188968 199.015813 229.188968 200.852886 
C 229.188968 202.689958 229.918844 204.452036 231.21785 205.751042 
C 232.516857 207.050048 234.278935 207.779925 236.116007 207.779925 
z
" clip-path="url(#p380158eaf5)" style="fill: #a6cee3; fill-opacity: 0.6; stroke: #000000; stroke-opacity: 0.6; stroke-width: 0.874194"/>
    <path d="M 190.286004 248.573747 
C 192.022555 248.573747 193.688215 247.883808 194.916142 246.655881 
C 196.144068 245.427954 196.834007 243.762295 196.834007 242.025744 
C 196.834007 240.289193 196.144068 238.623533 194.916142 237.395607 
C 193.688215 236.16768 192.022555 235.477741 190.286004 235.477741 
C 188.549454 235.477741 186.883794 236.16768 185.655867 237.395607 
C 184.42794 238.623533 183.738001 240.289193 183.738001 242.025744 
C 183.738001 243.762295 184.42794 245.427954 185.655867 246.655881 
C 186.883794 247.883808 188.549454 248.573747 190.286004 248.573747 
z
" clip-path="url(#p380158eaf5)" style="fill: #a6cee3; fill-opacity: 0.6; stroke: #000000; stroke-opacity: 0.6; stroke-width: 0.874194"/>
    <path d="M 210.279557 236.038129 
C 211.909399 236.038129 213.472705 235.390586 214.625177 234.238114 
C 215.777649 233.085642 216.425191 231.522336 216.425191 229.892495 
C 216.425191 228.262654 215.777649 226.699347 214.625177 225.546875 
C 213.472705 224.394403 211.909399 223.746861 210.279557 223.746861 
C 208.649716 223.746861 207.08641 224.394403 205.933938 225.546875 
C 204.781466 226.699347 204.133923 228.262654 204.133923 229.892495 
C 204.133923 231.522336 204.781466 233.085642 205.933938 234.238114 
C 207.08641 235.390586 208.649716 236.038129 210.279557 236.038129 
z
" clip-path="url(#p380158eaf5)" style="fill: #a6cee3; fill-opacity: 0.6; stroke: #000000; stroke-opacity: 0.6; stroke-width: 0.874194"/>
    <path d="M 194.432298 312.881913 
C 195.947935 312.881913 197.401699 312.279744 198.473417 311.208026 
C 199.545134 310.136309 200.147303 308.682544 200.147303 307.166907 
C 200.147303 305.65127 199.545134 304.197505 198.473417 303.125788 
C 197.401699 302.05407 195.947935 301.451901 194.432298 301.451901 
C 192.91666 301.451901 191.462896 302.05407 190.391178 303.125788 
C 189.319461 304.197505 188.717292 305.65127 188.717292 307.166907 
C 188.717292 308.682544 189.319461 310.136309 190.391178 311.208026 
C 191.462896 312.279744 192.91666 312.881913 194.432298 312.881913 
z
" clip-path="url(#p380158eaf5)" style="fill: #a6cee3; fill-opacity: 0.6; stroke: #000000; stroke-opacity: 0.6; stroke-width: 0.874194"/>
    <path d="M 255.948624 135.76237 
C 257.403802 135.76237 258.799576 135.184221 259.828542 134.155255 
C 260.857509 133.126289 261.435657 131.730515 261.435657 130.275337 
C 261.435657 128.820159 260.857509 127.424385 259.828542 126.395419 
C 258.799576 125.366453 257.403802 124.788304 255.948624 124.788304 
C 254.493446 124.788304 253.097673 125.366453 252.068706 126.395419 
C 251.03974 127.424385 250.461592 128.820159 250.461592 130.275337 
C 250.461592 131.730515 251.03974 133.126289 252.068706 134.155255 
C 253.097673 135.184221 254.493446 135.76237 255.948624 135.76237 
z
" clip-path="url(#p380158eaf5)" style="fill: #1f78b4; fill-opacity: 0.6; stroke: #000000; stroke-opacity: 0.6; stroke-width: 0.874194"/>
    <path d="M 238.237946 313.589055 
C 239.630042 313.589055 240.965308 313.035969 241.949668 312.051609 
C 242.934029 311.067249 243.487114 309.731982 243.487114 308.339887 
C 243.487114 306.947791 242.934029 305.612525 241.949668 304.628165 
C 240.965308 303.643804 239.630042 303.090719 238.237946 303.090719 
C 236.845851 303.090719 235.510584 303.643804 234.526224 304.628165 
C 233.541864 305.612525 232.988778 306.947791 232.988778 308.339887 
C 232.988778 309.731982 233.541864 311.067249 234.526224 312.051609 
C 235.510584 313.035969 236.845851 313.589055 238.237946 313.589055 
z
" clip-path="url(#p380158eaf5)" style="fill: #a6cee3; fill-opacity: 0.6; stroke: #000000; stroke-opacity: 0.6; stroke-width: 0.874194"/>
    <path d="M 183.56664 350.140941 
C 184.958736 350.140941 186.294002 349.587856 187.278362 348.603496 
C 188.262723 347.619135 188.815808 346.283869 188.815808 344.891773 
C 188.815808 343.499678 188.262723 342.164411 187.278362 341.180051 
C 186.294002 340.195691 184.958736 339.642606 183.56664 339.642606 
C 182.174545 339.642606 180.839278 340.195691 179.854918 341.180051 
C 178.870558 342.164411 178.317472 343.499678 178.317472 344.891773 
C 178.317472 346.283869 178.870558 347.619135 179.854918 348.603496 
C 180.839278 349.587856 182.174545 350.140941 183.56664 350.140941 
z
" clip-path="url(#p380158eaf5)" style="fill: #a6cee3; fill-opacity: 0.6; stroke: #000000; stroke-opacity: 0.6; stroke-width: 0.874194"/>
    <path d="M 301.202882 202.181729 
C 302.528898 202.181729 303.800781 201.654897 304.738416 200.717263 
C 305.67605 199.779628 306.202882 198.507744 306.202882 197.181729 
C 306.202882 195.855713 305.67605 194.583829 304.738416 193.646195 
C 303.800781 192.70856 302.528898 192.181729 301.202882 192.181729 
C 299.876867 192.181729 298.604983 192.70856 297.667348 193.646195 
C 296.729714 194.583829 296.202882 195.855713 296.202882 197.181729 
C 296.202882 198.507744 296.729714 199.779628 297.667348 200.717263 
C 298.604983 201.654897 299.876867 202.181729 301.202882 202.181729 
z
" clip-path="url(#p380158eaf5)" style="fill: #a6cee3; fill-opacity: 0.6; stroke: #000000; stroke-opacity: 0.6; stroke-width: 0.874194"/>
   </g>
   <g id="PathCollection_2"/>
   <g id="PathCollection_3"/>
   <g id="PathCollection_4"/>
   <g id="PathCollection_5"/>
   <g id="PathCollection_6"/>
   <g id="PathCollection_7"/>
   <g id="PathCollection_8"/>
   <g id="patch_3">
    <path d="M 7.2 361.4875 
L 7.2 28.8475 
" style="fill: none; stroke: #262626; stroke-width: 1.25; stroke-linejoin: miter; stroke-linecap: square"/>
   </g>
   <g id="patch_4">
    <path d="M 453.6 361.4875 
L 453.6 28.8475 
" style="fill: none; stroke: #262626; stroke-width: 1.25; stroke-linejoin: miter; stroke-linecap: square"/>
   </g>
   <g id="patch_5">
    <path d="M 7.2 361.4875 
L 453.6 361.4875 
" style="fill: none; stroke: #262626; stroke-width: 1.25; stroke-linejoin: miter; stroke-linecap: square"/>
   </g>
   <g id="patch_6">
    <path d="M 7.2 28.8475 
L 453.6 28.8475 
" style="fill: none; stroke: #262626; stroke-width: 1.25; stroke-linejoin: miter; stroke-linecap: square"/>
   </g>
   <g id="text_1">
    <!-- 0 -->
    <g style="fill: #262626" transform="translate(36.429624 74.486316) scale(0.1 -0.1)">
     <defs>
      <path id="ArialMT-30" d="M 266 2259 
Q 266 3072 433 3567 
Q 600 4063 929 4331 
Q 1259 4600 1759 4600 
Q 2128 4600 2406 4451 
Q 2684 4303 2865 4023 
Q 3047 3744 3150 3342 
Q 3253 2941 3253 2259 
Q 3253 1453 3087 958 
Q 2922 463 2592 192 
Q 2263 -78 1759 -78 
Q 1097 -78 719 397 
Q 266 969 266 2259 
z
M 844 2259 
Q 844 1131 1108 757 
Q 1372 384 1759 384 
Q 2147 384 2411 759 
Q 2675 1134 2675 2259 
Q 2675 3391 2411 3762 
Q 2147 4134 1753 4134 
Q 1366 4134 1134 3806 
Q 844 3388 844 2259 
z
" transform="scale(0.015625)"/>
     </defs>
     <use xlink:href="#ArialMT-30"/>
    </g>
   </g>
   <g id="text_2">
    <!-- 1 -->
    <g style="fill: #262626" transform="translate(289.159006 97.004199) scale(0.1 -0.1)">
     <defs>
      <path id="ArialMT-31" d="M 2384 0 
L 1822 0 
L 1822 3584 
Q 1619 3391 1289 3197 
Q 959 3003 697 2906 
L 697 3450 
Q 1169 3672 1522 3987 
Q 1875 4303 2022 4600 
L 2384 4600 
L 2384 0 
z
" transform="scale(0.015625)"/>
     </defs>
     <use xlink:href="#ArialMT-31"/>
    </g>
   </g>
   <g id="text_3">
    <!-- 2 -->
    <g style="fill: #262626" transform="translate(50.870287 95.834047) scale(0.1 -0.1)">
     <defs>
      <path id="ArialMT-32" d="M 3222 541 
L 3222 0 
L 194 0 
Q 188 203 259 391 
Q 375 700 629 1000 
Q 884 1300 1366 1694 
Q 2113 2306 2375 2664 
Q 2638 3022 2638 3341 
Q 2638 3675 2398 3904 
Q 2159 4134 1775 4134 
Q 1369 4134 1125 3890 
Q 881 3647 878 3216 
L 300 3275 
Q 359 3922 746 4261 
Q 1134 4600 1788 4600 
Q 2447 4600 2831 4234 
Q 3216 3869 3216 3328 
Q 3216 3053 3103 2787 
Q 2991 2522 2730 2228 
Q 2469 1934 1863 1422 
Q 1356 997 1212 845 
Q 1069 694 975 541 
L 3222 541 
z
" transform="scale(0.015625)"/>
     </defs>
     <use xlink:href="#ArialMT-32"/>
    </g>
   </g>
   <g id="text_4">
    <!-- 3 -->
    <g style="fill: #262626" transform="translate(204.054111 325.8133) scale(0.1 -0.1)">
     <defs>
      <path id="ArialMT-33" d="M 269 1209 
L 831 1284 
Q 928 806 1161 595 
Q 1394 384 1728 384 
Q 2125 384 2398 659 
Q 2672 934 2672 1341 
Q 2672 1728 2419 1979 
Q 2166 2231 1775 2231 
Q 1616 2231 1378 2169 
L 1441 2663 
Q 1497 2656 1531 2656 
Q 1891 2656 2178 2843 
Q 2466 3031 2466 3422 
Q 2466 3731 2256 3934 
Q 2047 4138 1716 4138 
Q 1388 4138 1169 3931 
Q 950 3725 888 3313 
L 325 3413 
Q 428 3978 793 4289 
Q 1159 4600 1703 4600 
Q 2078 4600 2393 4439 
Q 2709 4278 2876 4000 
Q 3044 3722 3044 3409 
Q 3044 3113 2884 2869 
Q 2725 2625 2413 2481 
Q 2819 2388 3044 2092 
Q 3269 1797 3269 1353 
Q 3269 753 2831 336 
Q 2394 -81 1725 -81 
Q 1122 -81 723 278 
Q 325 638 269 1209 
z
" transform="scale(0.015625)"/>
     </defs>
     <use xlink:href="#ArialMT-33"/>
    </g>
   </g>
   <g id="text_5">
    <!-- 4 -->
    <g style="fill: #262626" transform="translate(403.146271 121.472043) scale(0.1 -0.1)">
     <defs>
      <path id="ArialMT-34" d="M 2069 0 
L 2069 1097 
L 81 1097 
L 81 1613 
L 2172 4581 
L 2631 4581 
L 2631 1613 
L 3250 1613 
L 3250 1097 
L 2631 1097 
L 2631 0 
L 2069 0 
z
M 2069 1613 
L 2069 3678 
L 634 1613 
L 2069 1613 
z
" transform="scale(0.015625)"/>
     </defs>
     <use xlink:href="#ArialMT-34"/>
    </g>
   </g>
   <g id="text_6">
    <!-- 5 -->
    <g style="fill: #262626" transform="translate(18.541129 98.439723) scale(0.1 -0.1)">
     <defs>
      <path id="ArialMT-35" d="M 266 1200 
L 856 1250 
Q 922 819 1161 601 
Q 1400 384 1738 384 
Q 2144 384 2425 690 
Q 2706 997 2706 1503 
Q 2706 1984 2436 2262 
Q 2166 2541 1728 2541 
Q 1456 2541 1237 2417 
Q 1019 2294 894 2097 
L 366 2166 
L 809 4519 
L 3088 4519 
L 3088 3981 
L 1259 3981 
L 1013 2750 
Q 1425 3038 1878 3038 
Q 2478 3038 2890 2622 
Q 3303 2206 3303 1553 
Q 3303 931 2941 478 
Q 2500 -78 1738 -78 
Q 1113 -78 717 272 
Q 322 622 266 1200 
z
" transform="scale(0.015625)"/>
     </defs>
     <use xlink:href="#ArialMT-35"/>
    </g>
   </g>
   <g id="text_7">
    <!-- 6 -->
    <g style="fill: #262626" transform="translate(175.969306 262.097063) scale(0.1 -0.1)">
     <defs>
      <path id="ArialMT-36" d="M 3184 3459 
L 2625 3416 
Q 2550 3747 2413 3897 
Q 2184 4138 1850 4138 
Q 1581 4138 1378 3988 
Q 1113 3794 959 3422 
Q 806 3050 800 2363 
Q 1003 2672 1297 2822 
Q 1591 2972 1913 2972 
Q 2475 2972 2870 2558 
Q 3266 2144 3266 1488 
Q 3266 1056 3080 686 
Q 2894 316 2569 119 
Q 2244 -78 1831 -78 
Q 1128 -78 684 439 
Q 241 956 241 2144 
Q 241 3472 731 4075 
Q 1159 4600 1884 4600 
Q 2425 4600 2770 4297 
Q 3116 3994 3184 3459 
z
M 888 1484 
Q 888 1194 1011 928 
Q 1134 663 1356 523 
Q 1578 384 1822 384 
Q 2178 384 2434 671 
Q 2691 959 2691 1453 
Q 2691 1928 2437 2201 
Q 2184 2475 1800 2475 
Q 1419 2475 1153 2201 
Q 888 1928 888 1484 
z
" transform="scale(0.015625)"/>
     </defs>
     <use xlink:href="#ArialMT-36"/>
    </g>
   </g>
   <g id="text_8">
    <!-- 7 -->
    <g style="fill: #262626" transform="translate(34.158888 101.629833) scale(0.1 -0.1)">
     <defs>
      <path id="ArialMT-37" d="M 303 3981 
L 303 4522 
L 3269 4522 
L 3269 4084 
Q 2831 3619 2401 2847 
Q 1972 2075 1738 1259 
Q 1569 684 1522 0 
L 944 0 
Q 953 541 1156 1306 
Q 1359 2072 1739 2783 
Q 2119 3494 2547 3981 
L 303 3981 
z
" transform="scale(0.015625)"/>
     </defs>
     <use xlink:href="#ArialMT-37"/>
    </g>
   </g>
   <g id="text_9">
    <!-- 8 -->
    <g style="fill: #262626" transform="translate(98.673906 127.424985) scale(0.1 -0.1)">
     <defs>
      <path id="ArialMT-38" d="M 1131 2484 
Q 781 2613 612 2850 
Q 444 3088 444 3419 
Q 444 3919 803 4259 
Q 1163 4600 1759 4600 
Q 2359 4600 2725 4251 
Q 3091 3903 3091 3403 
Q 3091 3084 2923 2848 
Q 2756 2613 2416 2484 
Q 2838 2347 3058 2040 
Q 3278 1734 3278 1309 
Q 3278 722 2862 322 
Q 2447 -78 1769 -78 
Q 1091 -78 675 323 
Q 259 725 259 1325 
Q 259 1772 486 2073 
Q 713 2375 1131 2484 
z
M 1019 3438 
Q 1019 3113 1228 2906 
Q 1438 2700 1772 2700 
Q 2097 2700 2305 2904 
Q 2513 3109 2513 3406 
Q 2513 3716 2298 3927 
Q 2084 4138 1766 4138 
Q 1444 4138 1231 3931 
Q 1019 3725 1019 3438 
z
M 838 1322 
Q 838 1081 952 856 
Q 1066 631 1291 507 
Q 1516 384 1775 384 
Q 2178 384 2440 643 
Q 2703 903 2703 1303 
Q 2703 1709 2433 1975 
Q 2163 2241 1756 2241 
Q 1359 2241 1098 1978 
Q 838 1716 838 1322 
z
" transform="scale(0.015625)"/>
     </defs>
     <use xlink:href="#ArialMT-38"/>
    </g>
   </g>
   <g id="text_10">
    <!-- 9 -->
    <g style="fill: #262626" transform="translate(408.81192 47.425475) scale(0.1 -0.1)">
     <defs>
      <path id="ArialMT-39" d="M 350 1059 
L 891 1109 
Q 959 728 1153 556 
Q 1347 384 1650 384 
Q 1909 384 2104 503 
Q 2300 622 2425 820 
Q 2550 1019 2634 1356 
Q 2719 1694 2719 2044 
Q 2719 2081 2716 2156 
Q 2547 1888 2255 1720 
Q 1963 1553 1622 1553 
Q 1053 1553 659 1965 
Q 266 2378 266 3053 
Q 266 3750 677 4175 
Q 1088 4600 1706 4600 
Q 2153 4600 2523 4359 
Q 2894 4119 3086 3673 
Q 3278 3228 3278 2384 
Q 3278 1506 3087 986 
Q 2897 466 2520 194 
Q 2144 -78 1638 -78 
Q 1100 -78 759 220 
Q 419 519 350 1059 
z
M 2653 3081 
Q 2653 3566 2395 3850 
Q 2138 4134 1775 4134 
Q 1400 4134 1122 3828 
Q 844 3522 844 3034 
Q 844 2597 1108 2323 
Q 1372 2050 1759 2050 
Q 2150 2050 2401 2323 
Q 2653 2597 2653 3081 
z
" transform="scale(0.015625)"/>
     </defs>
     <use xlink:href="#ArialMT-39"/>
    </g>
   </g>
   <g id="text_11">
    <!-- 10 -->
    <g style="fill: #262626" transform="translate(424.359311 77.652319) scale(0.1 -0.1)">
     <use xlink:href="#ArialMT-31"/>
     <use xlink:href="#ArialMT-30" x="55.615234"/>
    </g>
   </g>
   <g id="text_12">
    <!-- 11 -->
    <g style="fill: #262626" transform="translate(318.556426 154.859234) scale(0.1 -0.1)">
     <use xlink:href="#ArialMT-31"/>
     <use xlink:href="#ArialMT-31" x="48.240234"/>
    </g>
   </g>
   <g id="text_13">
    <!-- 12 -->
    <g style="fill: #262626" transform="translate(325.92029 122.965411) scale(0.1 -0.1)">
     <use xlink:href="#ArialMT-31"/>
     <use xlink:href="#ArialMT-32" x="55.615234"/>
    </g>
   </g>
   <g id="text_14">
    <!-- 13 -->
    <g style="fill: #262626" transform="translate(174.224432 183.882882) scale(0.1 -0.1)">
     <use xlink:href="#ArialMT-31"/>
     <use xlink:href="#ArialMT-33" x="55.615234"/>
    </g>
   </g>
   <g id="text_15">
    <!-- 14 -->
    <g style="fill: #262626" transform="translate(324.272717 75.229801) scale(0.1 -0.1)">
     <use xlink:href="#ArialMT-31"/>
     <use xlink:href="#ArialMT-34" x="55.615234"/>
    </g>
   </g>
   <g id="text_16">
    <!-- 15 -->
    <g style="fill: #262626" transform="translate(126.87422 161.104656) scale(0.1 -0.1)">
     <use xlink:href="#ArialMT-31"/>
     <use xlink:href="#ArialMT-35" x="55.615234"/>
    </g>
   </g>
   <g id="text_17">
    <!-- 16 -->
    <g style="fill: #262626" transform="translate(374.908497 74.739322) scale(0.1 -0.1)">
     <use xlink:href="#ArialMT-31"/>
     <use xlink:href="#ArialMT-36" x="55.615234"/>
    </g>
   </g>
   <g id="text_18">
    <!-- 17 -->
    <g style="fill: #262626" transform="translate(231.748383 154.309329) scale(0.1 -0.1)">
     <use xlink:href="#ArialMT-31"/>
     <use xlink:href="#ArialMT-37" x="55.615234"/>
    </g>
   </g>
   <g id="text_19">
    <!-- 18 -->
    <g style="fill: #262626" transform="translate(121.625466 331.679955) scale(0.1 -0.1)">
     <use xlink:href="#ArialMT-31"/>
     <use xlink:href="#ArialMT-38" x="55.615234"/>
    </g>
   </g>
   <g id="text_20">
    <!-- 19 -->
    <g style="fill: #262626" transform="translate(397.138835 94.083881) scale(0.1 -0.1)">
     <use xlink:href="#ArialMT-31"/>
     <use xlink:href="#ArialMT-39" x="55.615234"/>
    </g>
   </g>
   <g id="text_21">
    <!-- 20 -->
    <g style="fill: #262626" transform="translate(143.709094 349.825475) scale(0.1 -0.1)">
     <use xlink:href="#ArialMT-32"/>
     <use xlink:href="#ArialMT-30" x="55.615234"/>
    </g>
   </g>
   <g id="text_22">
    <!-- 21 -->
    <g style="fill: #262626" transform="translate(355.72645 158.913659) scale(0.1 -0.1)">
     <use xlink:href="#ArialMT-32"/>
     <use xlink:href="#ArialMT-31" x="55.615234"/>
    </g>
   </g>
   <g id="text_23">
    <!-- 22 -->
    <g style="fill: #262626" transform="translate(227.166227 204.310861) scale(0.1 -0.1)">
     <use xlink:href="#ArialMT-32"/>
     <use xlink:href="#ArialMT-32" x="55.615234"/>
    </g>
   </g>
   <g id="text_24">
    <!-- 23 -->
    <g style="fill: #262626" transform="translate(181.336224 245.483719) scale(0.1 -0.1)">
     <use xlink:href="#ArialMT-32"/>
     <use xlink:href="#ArialMT-33" x="55.615234"/>
    </g>
   </g>
   <g id="text_25">
    <!-- 24 -->
    <g style="fill: #262626" transform="translate(201.329777 233.35047) scale(0.1 -0.1)">
     <use xlink:href="#ArialMT-32"/>
     <use xlink:href="#ArialMT-34" x="55.615234"/>
    </g>
   </g>
   <g id="text_26">
    <!-- 25 -->
    <g style="fill: #262626" transform="translate(185.482518 310.624882) scale(0.1 -0.1)">
     <use xlink:href="#ArialMT-32"/>
     <use xlink:href="#ArialMT-35" x="55.615234"/>
    </g>
   </g>
   <g id="text_27">
    <!-- 26 -->
    <g style="fill: #262626" transform="translate(246.998845 133.733312) scale(0.1 -0.1)">
     <use xlink:href="#ArialMT-32"/>
     <use xlink:href="#ArialMT-36" x="55.615234"/>
    </g>
   </g>
   <g id="text_28">
    <!-- 27 -->
    <g style="fill: #262626" transform="translate(229.288166 311.797862) scale(0.1 -0.1)">
     <use xlink:href="#ArialMT-32"/>
     <use xlink:href="#ArialMT-37" x="55.615234"/>
    </g>
   </g>
   <g id="text_29">
    <!-- 28 -->
    <g style="fill: #262626" transform="translate(174.61686 348.349749) scale(0.1 -0.1)">
     <use xlink:href="#ArialMT-32"/>
     <use xlink:href="#ArialMT-38" x="55.615234"/>
    </g>
   </g>
   <g id="text_30">
    <!-- 29 -->
    <g style="fill: #262626" transform="translate(292.253102 200.639704) scale(0.1 -0.1)">
     <use xlink:href="#ArialMT-32"/>
     <use xlink:href="#ArialMT-39" x="55.615234"/>
    </g>
   </g>
   <g id="text_31">
    <!-- Groups of Topics -->
    <g style="fill: #262626" transform="translate(170.52 18.8475) scale(0.16 -0.16)">
     <defs>
      <path id="ArialMT-47" d="M 2638 1797 
L 2638 2334 
L 4578 2338 
L 4578 638 
Q 4131 281 3656 101 
Q 3181 -78 2681 -78 
Q 2006 -78 1454 211 
Q 903 500 622 1047 
Q 341 1594 341 2269 
Q 341 2938 620 3517 
Q 900 4097 1425 4378 
Q 1950 4659 2634 4659 
Q 3131 4659 3532 4498 
Q 3934 4338 4162 4050 
Q 4391 3763 4509 3300 
L 3963 3150 
Q 3859 3500 3706 3700 
Q 3553 3900 3268 4020 
Q 2984 4141 2638 4141 
Q 2222 4141 1919 4014 
Q 1616 3888 1430 3681 
Q 1244 3475 1141 3228 
Q 966 2803 966 2306 
Q 966 1694 1177 1281 
Q 1388 869 1791 669 
Q 2194 469 2647 469 
Q 3041 469 3416 620 
Q 3791 772 3984 944 
L 3984 1797 
L 2638 1797 
z
" transform="scale(0.015625)"/>
      <path id="ArialMT-72" d="M 416 0 
L 416 3319 
L 922 3319 
L 922 2816 
Q 1116 3169 1280 3281 
Q 1444 3394 1641 3394 
Q 1925 3394 2219 3213 
L 2025 2691 
Q 1819 2813 1613 2813 
Q 1428 2813 1281 2702 
Q 1134 2591 1072 2394 
Q 978 2094 978 1738 
L 978 0 
L 416 0 
z
" transform="scale(0.015625)"/>
      <path id="ArialMT-6f" d="M 213 1659 
Q 213 2581 725 3025 
Q 1153 3394 1769 3394 
Q 2453 3394 2887 2945 
Q 3322 2497 3322 1706 
Q 3322 1066 3130 698 
Q 2938 331 2570 128 
Q 2203 -75 1769 -75 
Q 1072 -75 642 372 
Q 213 819 213 1659 
z
M 791 1659 
Q 791 1022 1069 705 
Q 1347 388 1769 388 
Q 2188 388 2466 706 
Q 2744 1025 2744 1678 
Q 2744 2294 2464 2611 
Q 2184 2928 1769 2928 
Q 1347 2928 1069 2612 
Q 791 2297 791 1659 
z
" transform="scale(0.015625)"/>
      <path id="ArialMT-75" d="M 2597 0 
L 2597 488 
Q 2209 -75 1544 -75 
Q 1250 -75 995 37 
Q 741 150 617 320 
Q 494 491 444 738 
Q 409 903 409 1263 
L 409 3319 
L 972 3319 
L 972 1478 
Q 972 1038 1006 884 
Q 1059 663 1231 536 
Q 1403 409 1656 409 
Q 1909 409 2131 539 
Q 2353 669 2445 892 
Q 2538 1116 2538 1541 
L 2538 3319 
L 3100 3319 
L 3100 0 
L 2597 0 
z
" transform="scale(0.015625)"/>
      <path id="ArialMT-70" d="M 422 -1272 
L 422 3319 
L 934 3319 
L 934 2888 
Q 1116 3141 1344 3267 
Q 1572 3394 1897 3394 
Q 2322 3394 2647 3175 
Q 2972 2956 3137 2557 
Q 3303 2159 3303 1684 
Q 3303 1175 3120 767 
Q 2938 359 2589 142 
Q 2241 -75 1856 -75 
Q 1575 -75 1351 44 
Q 1128 163 984 344 
L 984 -1272 
L 422 -1272 
z
M 931 1641 
Q 931 1000 1190 694 
Q 1450 388 1819 388 
Q 2194 388 2461 705 
Q 2728 1022 2728 1688 
Q 2728 2322 2467 2637 
Q 2206 2953 1844 2953 
Q 1484 2953 1207 2617 
Q 931 2281 931 1641 
z
" transform="scale(0.015625)"/>
      <path id="ArialMT-73" d="M 197 991 
L 753 1078 
Q 800 744 1014 566 
Q 1228 388 1613 388 
Q 2000 388 2187 545 
Q 2375 703 2375 916 
Q 2375 1106 2209 1216 
Q 2094 1291 1634 1406 
Q 1016 1563 777 1677 
Q 538 1791 414 1992 
Q 291 2194 291 2438 
Q 291 2659 392 2848 
Q 494 3038 669 3163 
Q 800 3259 1026 3326 
Q 1253 3394 1513 3394 
Q 1903 3394 2198 3281 
Q 2494 3169 2634 2976 
Q 2775 2784 2828 2463 
L 2278 2388 
Q 2241 2644 2061 2787 
Q 1881 2931 1553 2931 
Q 1166 2931 1000 2803 
Q 834 2675 834 2503 
Q 834 2394 903 2306 
Q 972 2216 1119 2156 
Q 1203 2125 1616 2013 
Q 2213 1853 2448 1751 
Q 2684 1650 2818 1456 
Q 2953 1263 2953 975 
Q 2953 694 2789 445 
Q 2625 197 2315 61 
Q 2006 -75 1616 -75 
Q 969 -75 630 194 
Q 291 463 197 991 
z
" transform="scale(0.015625)"/>
      <path id="ArialMT-20" transform="scale(0.015625)"/>
      <path id="ArialMT-66" d="M 556 0 
L 556 2881 
L 59 2881 
L 59 3319 
L 556 3319 
L 556 3672 
Q 556 4006 616 4169 
Q 697 4388 901 4523 
Q 1106 4659 1475 4659 
Q 1713 4659 2000 4603 
L 1916 4113 
Q 1741 4144 1584 4144 
Q 1328 4144 1222 4034 
Q 1116 3925 1116 3625 
L 1116 3319 
L 1763 3319 
L 1763 2881 
L 1116 2881 
L 1116 0 
L 556 0 
z
" transform="scale(0.015625)"/>
      <path id="ArialMT-54" d="M 1659 0 
L 1659 4041 
L 150 4041 
L 150 4581 
L 3781 4581 
L 3781 4041 
L 2266 4041 
L 2266 0 
L 1659 0 
z
" transform="scale(0.015625)"/>
      <path id="ArialMT-69" d="M 425 3934 
L 425 4581 
L 988 4581 
L 988 3934 
L 425 3934 
z
M 425 0 
L 425 3319 
L 988 3319 
L 988 0 
L 425 0 
z
" transform="scale(0.015625)"/>
      <path id="ArialMT-63" d="M 2588 1216 
L 3141 1144 
Q 3050 572 2676 248 
Q 2303 -75 1759 -75 
Q 1078 -75 664 370 
Q 250 816 250 1647 
Q 250 2184 428 2587 
Q 606 2991 970 3192 
Q 1334 3394 1763 3394 
Q 2303 3394 2647 3120 
Q 2991 2847 3088 2344 
L 2541 2259 
Q 2463 2594 2264 2762 
Q 2066 2931 1784 2931 
Q 1359 2931 1093 2626 
Q 828 2322 828 1663 
Q 828 994 1084 691 
Q 1341 388 1753 388 
Q 2084 388 2306 591 
Q 2528 794 2588 1216 
z
" transform="scale(0.015625)"/>
     </defs>
     <use xlink:href="#ArialMT-47"/>
     <use xlink:href="#ArialMT-72" x="77.783203"/>
     <use xlink:href="#ArialMT-6f" x="111.083984"/>
     <use xlink:href="#ArialMT-75" x="166.699219"/>
     <use xlink:href="#ArialMT-70" x="222.314453"/>
     <use xlink:href="#ArialMT-73" x="277.929688"/>
     <use xlink:href="#ArialMT-20" x="327.929688"/>
     <use xlink:href="#ArialMT-6f" x="355.712891"/>
     <use xlink:href="#ArialMT-66" x="411.328125"/>
     <use xlink:href="#ArialMT-20" x="439.111328"/>
     <use xlink:href="#ArialMT-54" x="465.144531"/>
     <use xlink:href="#ArialMT-6f" x="515.103516"/>
     <use xlink:href="#ArialMT-70" x="570.71875"/>
     <use xlink:href="#ArialMT-69" x="626.333984"/>
     <use xlink:href="#ArialMT-63" x="648.550781"/>
     <use xlink:href="#ArialMT-73" x="698.550781"/>
    </g>
   </g>
   <g id="legend_1">
    <g id="patch_7">
     <path d="M 404.582969 100.947656 
L 445.9 100.947656 
Q 448.1 100.947656 448.1 98.747656 
L 448.1 36.5475 
Q 448.1 34.3475 445.9 34.3475 
L 404.582969 34.3475 
Q 402.382969 34.3475 402.382969 36.5475 
L 402.382969 98.747656 
Q 402.382969 100.947656 404.582969 100.947656 
z
" style="fill: #ffffff; opacity: 0.8; stroke: #cccccc; stroke-linejoin: miter"/>
    </g>
    <g id="text_32">
     <!-- Group -->
     <g style="fill: #262626" transform="translate(408.567109 47.483125) scale(0.12 -0.12)">
      <use xlink:href="#ArialMT-47"/>
      <use xlink:href="#ArialMT-72" x="77.783203"/>
      <use xlink:href="#ArialMT-6f" x="111.083984"/>
      <use xlink:href="#ArialMT-75" x="166.699219"/>
      <use xlink:href="#ArialMT-70" x="222.314453"/>
     </g>
    </g>
    <g id="PathCollection_9">
     <defs>
      <path id="m42bd7363e6" d="M 0 3 
C 0.795609 3 1.55874 2.683901 2.12132 2.12132 
C 2.683901 1.55874 3 0.795609 3 0 
C 3 -0.795609 2.683901 -1.55874 2.12132 -2.12132 
C 1.55874 -2.683901 0.795609 -3 0 -3 
C -0.795609 -3 -1.55874 -2.683901 -2.12132 -2.12132 
C -2.683901 -1.55874 -3 -0.795609 -3 0 
C -3 0.795609 -2.683901 1.55874 -2.12132 2.12132 
C -1.55874 2.683901 -0.795609 3 0 3 
z
" style="stroke: #a6cee3"/>
     </defs>
     <g>
      <use xlink:href="#m42bd7363e6" x="417.782969" y="60.354219" style="fill: #a6cee3; stroke: #a6cee3"/>
     </g>
    </g>
    <g id="text_33">
     <!-- 1 -->
     <g style="fill: #262626" transform="translate(437.582969 63.241719) scale(0.11 -0.11)">
      <use xlink:href="#ArialMT-31"/>
     </g>
    </g>
    <g id="PathCollection_10">
     <defs>
      <path id="m3248d78ccf" d="M 0 3 
C 0.795609 3 1.55874 2.683901 2.12132 2.12132 
C 2.683901 1.55874 3 0.795609 3 0 
C 3 -0.795609 2.683901 -1.55874 2.12132 -2.12132 
C 1.55874 -2.683901 0.795609 -3 0 -3 
C -0.795609 -3 -1.55874 -2.683901 -2.12132 -2.12132 
C -2.683901 -1.55874 -3 -0.795609 -3 0 
C -3 0.795609 -2.683901 1.55874 -2.12132 2.12132 
C -1.55874 2.683901 -0.795609 3 0 3 
z
" style="stroke: #1f78b4"/>
     </defs>
     <g>
      <use xlink:href="#m3248d78ccf" x="417.782969" y="75.914062" style="fill: #1f78b4; stroke: #1f78b4"/>
     </g>
    </g>
    <g id="text_34">
     <!-- 2 -->
     <g style="fill: #262626" transform="translate(437.582969 78.801562) scale(0.11 -0.11)">
      <use xlink:href="#ArialMT-32"/>
     </g>
    </g>
    <g id="PathCollection_11">
     <defs>
      <path id="mf60681ba16" d="M 0 3 
C 0.795609 3 1.55874 2.683901 2.12132 2.12132 
C 2.683901 1.55874 3 0.795609 3 0 
C 3 -0.795609 2.683901 -1.55874 2.12132 -2.12132 
C 1.55874 -2.683901 0.795609 -3 0 -3 
C -0.795609 -3 -1.55874 -2.683901 -2.12132 -2.12132 
C -2.683901 -1.55874 -3 -0.795609 -3 0 
C -3 0.795609 -2.683901 1.55874 -2.12132 2.12132 
C -1.55874 2.683901 -0.795609 3 0 3 
z
" style="stroke: #b2df8a"/>
     </defs>
     <g>
      <use xlink:href="#mf60681ba16" x="417.782969" y="91.473906" style="fill: #b2df8a; stroke: #b2df8a"/>
     </g>
    </g>
    <g id="text_35">
     <!-- 3 -->
     <g style="fill: #262626" transform="translate(437.582969 94.361406) scale(0.11 -0.11)">
      <use xlink:href="#ArialMT-33"/>
     </g>
    </g>
   </g>
  </g>
 </g>
 <defs>
  <clipPath id="p380158eaf5">
   <rect x="7.2" y="28.8475" width="446.4" height="332.64"/>
  </clipPath>
 </defs>
</svg>
